<?xml version="1.0" encoding="utf-8"?>
<!-- Generator: Adobe Illustrator 16.0.0, SVG Export Plug-In . SVG Version: 6.00 Build 0)  -->
<!DOCTYPE svg PUBLIC "-//W3C//DTD SVG 1.1//EN" "http://www.w3.org/Graphics/SVG/1.1/DTD/svg11.dtd">
<svg version="1.1" id="Layer_1" xmlns="http://www.w3.org/2000/svg" xmlns:xlink="http://www.w3.org/1999/xlink" x="0px" y="0px"
	 width="383.6px" height="91.1px" viewBox="0 0 383.6 91.1" style="enable-background:new 0 0 383.6 91.1;" xml:space="preserve">
<style type="text/css">
<![CDATA[
	.st0{fill:#F1F2F2;}
]]>
</style>
<g>
	<path class="st0" d="M29.1,10.6c4.4,0,8.1,0.5,11.4,1.5s5.9,2.4,8,4.3c2.1,1.9,3.7,4.1,4.7,6.7c1,2.6,1.6,5.6,1.6,8.8
		c0,3.2-0.6,6.1-1.7,8.8c-1.1,2.7-2.8,4.9-4.9,6.9c-2.2,1.9-4.8,3.4-8,4.5c-3.2,1.1-6.9,1.6-11,1.6H18v25.7H8.8V10.6H29.1z
		 M29.1,46.2c2.7,0,5-0.4,7-1.1c2-0.7,3.7-1.7,5.1-3c1.4-1.3,2.4-2.8,3.1-4.5c0.7-1.8,1.1-3.7,1.1-5.8c0-4.4-1.4-7.8-4.1-10.3
		c-2.7-2.5-6.8-3.7-12.3-3.7H18v28.3H29.1z"/>
	<path class="st0" d="M105.5,71.5v7.8h-39V10.6h9.3v61H105.5z"/>
	<path class="st0" d="M171.6,79.4h-7.2c-0.8,0-1.5-0.2-2-0.6c-0.5-0.4-0.9-0.9-1.2-1.6l-6.4-16.6H124l-6.4,16.6
		c-0.2,0.6-0.6,1.1-1.1,1.5c-0.5,0.4-1.2,0.7-2,0.7h-7.2l27.5-68.8h9.4L171.6,79.4z M152.3,53.8l-10.8-28c-0.3-0.8-0.7-1.8-1-2.9
		c-0.4-1.1-0.7-2.3-1-3.5c-0.7,2.6-1.4,4.8-2.1,6.5l-10.8,27.9H152.3z"/>
	<path class="st0" d="M236.4,10.6v68.8h-4.7c-0.7,0-1.4-0.1-1.8-0.4c-0.5-0.3-1-0.7-1.5-1.3l-39.8-51.8c0.1,0.8,0.1,1.6,0.1,2.4
		c0,0.8,0,1.5,0,2.2v49h-8.2V10.6h4.8c0.4,0,0.8,0,1.1,0.1s0.5,0.1,0.8,0.2c0.2,0.1,0.4,0.3,0.7,0.5c0.2,0.2,0.5,0.5,0.7,0.8
		l39.8,51.8c-0.1-0.8-0.1-1.6-0.2-2.4c0-0.8-0.1-1.5-0.1-2.2V10.6H236.4z"/>
	<path class="st0" d="M307.7,11.4v67.9h-2.3c-0.4,0-0.8-0.1-1-0.2s-0.5-0.4-0.8-0.7l-44.1-58.9c0.1,1,0.1,1.9,0.1,2.7v57.2h-4.3
		V11.4h2.4c0.4,0,0.8,0.1,1,0.2c0.2,0.1,0.5,0.4,0.8,0.7l44,58.8c-0.1-1-0.1-1.9-0.1-2.7v-57H307.7z"/>
	<path class="st0" d="M374.6,79.4h-4.2c-0.5,0-1-0.1-1.4-0.3c-0.4-0.2-0.7-0.5-1-1l-21.8-27.6c-0.3-0.4-0.5-0.7-0.8-0.9
		c-0.3-0.3-0.6-0.5-0.9-0.6s-0.7-0.2-1.2-0.3c-0.5-0.1-1-0.1-1.7-0.1h-8.9v30.7h-4.9V11.4h17.4c7.8,0,13.7,1.5,17.5,4.5
		c3.9,3,5.8,7.5,5.8,13.3c0,2.6-0.4,5-1.3,7.1c-0.9,2.1-2.2,4-3.9,5.6c-1.7,1.6-3.7,2.9-6.1,4c-2.4,1-5.1,1.7-8,2.1
		c0.8,0.5,1.5,1.1,2.1,1.9L374.6,79.4z M344.4,45c3,0,5.7-0.4,8.1-1.1c2.4-0.7,4.4-1.8,6-3.1c1.6-1.3,2.9-3,3.8-4.8
		c0.9-1.9,1.3-4,1.3-6.4c0-4.8-1.6-8.4-4.7-10.8c-3.2-2.3-7.8-3.5-13.8-3.5h-12.4V45H344.4z"/>
</g>
</svg>
